<svg width="719" height="757" viewBox="0 0 719 757" fill="none" xmlns="http://www.w3.org/2000/svg">
<path d="M718.5 379C718.5 577.27 557.77 738 359.5 738C161.23 738 0.5 577.27 0.5 379C0.5 180.73 161.23 20 359.5 20C557.77 20 718.5 180.73 718.5 379Z" fill="#061222"/>
<path d="M130.462 364.923C130.462 342.887 133.055 323.335 138.24 306.268C143.641 288.984 152.606 270.297 165.137 250.205C177.667 230.113 192.79 213.369 210.506 199.975C228.221 186.364 252.742 174.374 284.068 164.004C306.105 156.874 333.974 153.309 367.677 153.309C390.361 153.309 412.506 156.334 434.11 162.383C455.93 168.432 475.698 176.858 493.414 187.66C511.129 198.462 528.845 215.098 546.56 237.566C558.874 253.121 568.164 269.864 574.43 287.796C582.639 311.345 586.744 335.649 586.744 360.71C586.744 389.228 583.935 412.885 578.318 431.68C572.917 450.476 563.735 469.056 550.773 487.419C540.619 501.678 523.227 518.097 498.599 536.677C482.179 549.208 461.763 559.362 437.351 567.139C412.938 574.701 386.581 578.481 358.279 578.481C329.545 578.481 303.944 575.133 281.476 568.435C259.007 561.738 240.212 553.636 225.089 544.131C210.182 534.409 194.735 520.15 178.748 501.354C162.976 482.558 150.986 461.818 142.776 439.134C134.567 416.449 130.462 391.712 130.462 364.923ZM355.362 566.491C373.51 566.491 392.306 564.006 411.749 559.037C431.409 553.852 448.801 545.427 463.924 533.76C479.047 521.878 490.821 508.483 499.247 493.577C507.888 478.454 514.802 459.118 519.987 435.569C525.172 412.02 527.764 388.472 527.764 364.923C527.764 335.541 523.443 306.484 514.802 277.75C508.104 255.93 497.194 236.486 482.071 219.418C466.948 202.135 448.693 188.848 427.305 179.559C405.916 170.053 383.124 165.3 358.927 165.3C339.267 165.3 320.039 168.54 301.244 175.022C282.448 181.503 267.001 189.821 254.903 199.975C242.804 209.913 231.57 224.171 221.2 242.751C210.83 261.115 202.944 281.423 197.543 303.675C192.142 325.927 189.442 345.587 189.442 362.655C189.442 380.586 192.142 400.894 197.543 423.579C202.944 446.263 210.29 465.923 219.58 482.558C229.085 499.194 240.644 513.993 254.254 526.955C268.081 539.702 283.528 549.532 300.596 556.445C317.663 563.142 335.919 566.491 355.362 566.491Z" fill="#CEEDFF"/>
<path d="M161.128 172.784V162.596C164.853 161.719 167.811 161.171 170.002 160.952L200.897 159.309C226.533 157.118 255.236 155.365 287.007 154.05C299.715 153.612 319.764 153.393 347.153 153.393C384.401 153.393 411.68 156.132 428.99 161.61C454.188 169.717 472.922 181.987 485.192 198.42C497.681 214.634 503.926 232.711 503.926 252.65C503.926 285.078 480.81 312.357 434.577 334.487L432.934 337.117C456.598 343.471 475.989 352.345 491.108 363.738C506.226 375.132 517.839 389.046 525.946 405.479C531.862 417.53 534.82 433.306 534.82 452.807C534.82 485.454 519.921 514.596 490.122 540.232C460.542 565.648 419.678 578.357 367.53 578.357H318.559L268.93 580C225.108 580.438 199.472 580.657 192.023 580.657C184.354 580.657 176.795 580.329 169.345 579.671V576.056C169.345 573.427 169.893 571.564 170.988 570.469C172.303 569.154 174.823 568.059 178.547 567.182C205.936 561.485 221.383 557.651 224.889 555.679C228.614 553.488 231.134 550.091 232.449 545.49C235.078 536.726 236.393 514.157 236.393 477.785C236.393 474.499 236.283 470.335 236.064 465.296C235.626 450.616 235.407 442.18 235.407 439.989V405.808C235.407 347.963 234.749 297.458 233.435 254.293L233.106 188.231L232.777 180.015C214.153 177.385 197.72 175.742 183.477 175.085C174.275 174.866 166.825 174.099 161.128 172.784ZM291.608 339.089C302.564 341.28 314.067 342.375 326.118 342.375C373.446 342.375 405.545 331.968 422.417 311.152C439.288 290.337 447.724 269.631 447.724 249.034C447.724 239.832 446.19 230.52 443.123 221.098C440.274 211.457 435.016 202.802 427.347 195.133C419.897 187.464 410.585 181.768 399.41 178.043C380.348 171.689 360.847 168.511 340.908 168.511C322.284 168.511 304.974 170.593 288.979 174.756C288.76 179.357 288.65 182.754 288.65 184.945C288.65 187.136 288.869 193.38 289.308 203.679C289.527 210.252 289.636 216.825 289.636 223.399L288.65 263.167L288.979 286.831L291.28 333.173L291.608 339.089ZM368.844 562.581C390.536 561.047 408.722 556.446 423.403 548.777C430.195 545.271 438.193 539.026 447.395 530.043C456.817 520.84 464.048 509.885 469.087 497.176C474.346 484.468 476.975 472.198 476.975 460.366C476.975 451.382 475.113 440.317 471.388 427.171C467.882 414.024 461.747 402.521 452.983 392.661C444.437 382.582 431.619 374.365 414.529 368.011C397.438 361.438 378.595 358.151 357.999 358.151C318.121 358.151 295.771 358.918 290.951 360.452C290.732 365.491 290.622 369.216 290.622 371.626L290.951 383.787L290.622 408.437V436.373C291.28 487.864 292.485 518.321 294.238 527.742C295.99 537.164 301.906 545.271 311.985 552.063C322.284 558.856 341.237 562.362 368.844 562.581Z" fill="#CEEDFF"/>
</svg>
